<svg id="visual" viewBox="0 0 1920 1080" width="1920" height="1080" xmlns="http://www.w3.org/2000/svg" xmlns:xlink="http://www.w3.org/1999/xlink" version="1.1"><path d="M0 271L175 163L349 152L524 163L698 152L873 195L1047 120L1222 239L1396 120L1571 195L1745 249L1920 87L1920 0L1745 0L1571 0L1396 0L1222 0L1047 0L873 0L698 0L524 0L349 0L175 0L0 0Z" fill="#65a391"></path><path d="M0 638L175 422L349 390L524 433L698 660L873 703L1047 455L1222 584L1396 347L1571 433L1745 433L1920 476L1920 85L1745 247L1571 193L1396 118L1222 237L1047 118L873 193L698 150L524 161L349 150L175 161L0 269Z" fill="#589787"></path><path d="M0 735L175 638L349 509L524 563L698 735L873 789L1047 563L1222 746L1396 519L1571 617L1745 638L1920 703L1920 474L1745 431L1571 431L1396 345L1222 582L1047 453L873 701L698 658L524 431L349 388L175 420L0 636Z" fill="#4b8b7e"></path><path d="M0 876L175 725L349 692L524 746L698 811L873 876L1047 649L1222 833L1396 671L1571 735L1745 800L1920 800L1920 701L1745 636L1571 615L1396 517L1222 744L1047 561L873 787L698 733L524 561L349 507L175 636L0 733Z" fill="#3f7f74"></path><path d="M0 1081L175 1081L349 1081L524 1081L698 1081L873 1081L1047 1081L1222 1081L1396 1081L1571 1081L1745 1081L1920 1081L1920 798L1745 798L1571 733L1396 669L1222 831L1047 647L873 874L698 809L524 744L349 690L175 723L0 874Z" fill="#32736b"></path></svg>